<svg xmlns="http://www.w3.org/2000/svg" width="728.871" height="369.295" viewBox="0 0 728.871 369.295">
  <g id="TITEL" transform="translate(143.822 -1001.659)">
    <g id="Gruppe_1" data-name="Gruppe 1" transform="translate(-29.659 1001.659)">
      <path id="Pfad_1" data-name="Pfad 1" d="M-73.643,1099.9v-97.241H-6v11.665H-61.675v31.058h33.22v11.662h-33.22v31.194H-6V1099.9Z" transform="translate(73.643 -1001.032)" fill="#040405"/>
      <path id="Pfad_2" data-name="Pfad 2" d="M-17.842,1099.535v-96.291h11.97v84.629H49.8v11.662Z" transform="translate(108.615 -1000.666)" fill="#040405"/>
      <path id="Pfad_3" data-name="Pfad 3" d="M37.959,1099.535v-96.291h11.97v84.629h55.677v11.662Z" transform="translate(143.588 -1000.666)" fill="#040405"/>
      <path id="Pfad_4" data-name="Pfad 4" d="M93.76,1099.9v-97.241h67.646v11.665H105.73v31.058h33.216v11.662H105.73v31.194h55.677V1099.9Z" transform="translate(178.561 -1001.032)" fill="#040405"/>
      <path id="Pfad_5" data-name="Pfad 5" d="M149.561,1099.535v-96.291h11.97v84.629h55.677v11.662Z" transform="translate(213.533 -1000.666)" fill="#040405"/>
      <path id="Pfad_6" data-name="Pfad 6" d="M261.846,1098.817v-27.4H217.332v27.4h-11.97V1064.1l29.855-61.439h8.876l29.722,61.439v34.719ZM239.522,1020.7l-18.963,39.06h38.059Z" transform="translate(248.505 -1001.032)" fill="#040405"/>
      <path id="Pfad_7" data-name="Pfad 7" d="M301.78,1053.467v45.977H289.808v-45.977l-29.72-45.028,9.684-6.78,26.09,39.331,25.956-39.06,10.086,6.239Z" transform="translate(282.804 -1001.659)" fill="#040405"/>
    </g>
    <g id="Gruppe_2" data-name="Gruppe 2" transform="translate(-120.434 1138.498)">
      <path id="Pfad_8" data-name="Pfad 8" d="M-72.961,1181.936V1109.92l-18.694,27.531h-7.665l-18.156-27.937v72.422h-11.968v-96.158h10.623l23.671,36.756,23.669-36.756h10.491v96.158Z" transform="translate(129.445 -1085.778)" fill="#040405"/>
      <path id="Pfad_9" data-name="Pfad 9" d="M-22.944,1182.52H-56.161l-17.483-17.767v-78.391h11.968V1160l10.626,10.852h23.266L-17.16,1160v-73.642h11.97v78.391Z" transform="translate(164.418 -1085.412)" fill="#040405"/>
      <path id="Pfad_10" data-name="Pfad 10" d="M44.455,1113.582l-15.869-16.139H5.454L-5.3,1108.157v9.764L5.454,1128.5H33.563l17.751,17.766v18.987l-17.751,17.767H.345l-19.1-19.531,8.339-8.407,15.869,16.274H28.587l10.759-10.85v-9.628l-10.759-10.715H.345l-17.618-17.629V1103.41L.345,1085.778H33.563l19.231,19.259Z" transform="translate(198.82 -1085.778)" fill="#040405"/>
      <path id="Pfad_11" data-name="Pfad 11" d="M37.958,1183.021v-11.664h27.3v-73.914h-27.3v-11.665h66.434v11.665H77.227v73.914h27.165v11.664Z" transform="translate(234.363 -1085.778)" fill="#040405"/>
      <path id="Pfad_12" data-name="Pfad 12" d="M155.489,1184.919l-13.315-13.562-11.566,11.664H111.377l-17.618-17.767V1103.41l17.618-17.632h33.218l17.618,17.632v47.468l-11.7,12.07,13.448,13.427Zm-5.246-76.762-10.624-10.714H116.353l-10.624,10.714v52.35l10.624,10.85H125.5l24.744-25.091Z" transform="translate(269.335 -1085.778)" fill="#040405"/>
      <path id="Pfad_13" data-name="Pfad 13" d="M200.262,1182.52H167.044l-17.484-17.767v-78.391h11.97V1160l10.624,10.852h23.266L206.044,1160v-73.642h11.97v78.391Z" transform="translate(304.307 -1085.412)" fill="#040405"/>
      <path id="Pfad_14" data-name="Pfad 14" d="M205.361,1183.021v-97.243h67.646v11.665H217.331V1128.5h33.218v11.662H217.331v31.194h55.677v11.664Z" transform="translate(339.28 -1085.778)" fill="#040405"/>
      <path id="Pfad_15" data-name="Pfad 15" d="M323.461,1113.582l-15.87-16.139H284.46L273.7,1108.157v9.764l10.759,10.58h28.107l17.753,17.766v18.987l-17.753,17.767H279.349l-19.1-19.531,8.337-8.407,15.87,16.274h23.131l10.759-10.85v-9.628l-10.759-10.715H279.349l-17.618-17.629V1103.41l17.618-17.632h33.218l19.233,19.259Z" transform="translate(373.683 -1085.778)" fill="#040405"/>
    </g>
    <g id="Gruppe_3" data-name="Gruppe 3" transform="translate(-121.789 1273.713)">
      <path id="Pfad_16" data-name="Pfad 16" d="M-116.695,1248.781v5.695h55.677v11.664h-67.646v-23.056l56.484-42.721v-9.085L-82.8,1180.563h-23.131l-15.87,16.137-8.472-8.544,19.231-19.259h33.218l17.618,17.632v19.529Z" transform="translate(130.278 -1168.898)" fill="#040405"/>
      <path id="Pfad_17" data-name="Pfad 17" d="M-22.649,1266.14H-55.867l-17.618-17.766V1186.53l17.618-17.632h33.218l17.618,17.632v61.844ZM-17,1191.277l-10.624-10.714H-50.891l-10.624,10.714v52.35l10.624,10.849h23.266L-17,1243.627Z" transform="translate(165.872 -1168.898)" fill="#040405"/>
      <path id="Pfad_18" data-name="Pfad 18" d="M-5.093,1248.781v5.695H50.584v11.664H-17.062v-23.056l56.484-42.721v-9.085L28.8,1180.563H5.666L-10.2,1196.7l-8.472-8.544L.555,1168.9H33.773l17.618,17.632v19.529Z" transform="translate(200.223 -1168.898)" fill="#040405"/>
      <path id="Pfad_19" data-name="Pfad 19" d="M88.952,1266.14H55.735l-17.618-17.766V1186.53L55.735,1168.9H88.952l17.618,17.632v61.844Zm5.648-74.862-10.624-10.714H60.711l-10.624,10.714v52.35l10.624,10.849H83.976L94.6,1243.627Z" transform="translate(235.817 -1168.898)" fill="#040405"/>
    </g>
    <g id="Gruppe_4" data-name="Gruppe 4" transform="translate(-143.822 1009.01)">
      <path id="Pfad_20" data-name="Pfad 20" d="M-39.693,1075.033l-35.946,36.25-68.183-68.759,35.948-36.252,24.817-.094,13.409,13.521v16.687l16.642.1,13.313,13.426Zm-48.5-56.964h-15.023l-23.965,24.167L-105.4,1064.2l23.965-24.167.093-15.057Zm29.955,30.209H-73.262l-23.963,24.167,21.871,22.057,23.965-24.167-.1-15.249Z" transform="translate(143.822 -1006.178)" fill="#040405"/>
    </g>
  </g>
</svg>
