<svg xmlns="http://www.w3.org/2000/svg" viewBox="0 0 200.86 70.63"><g id="Layer_2" data-name="Layer 2"><g id="Layer_1-2" data-name="Layer 1"><path d="M85.32,62.83a2,2,0,0,1,2,1.71h.93A2.87,2.87,0,0,0,85.32,62a3.06,3.06,0,0,0-2.18.88c-.79.8-.79,1.63-.79,3.42s0,2.63.79,3.43a3.06,3.06,0,0,0,2.18.88,2.86,2.86,0,0,0,2.94-2.52h-.91a2,2,0,0,1-2,1.71,2,2,0,0,1-1.47-.59c-.54-.55-.6-1.13-.6-2.91s.06-2.35.6-2.9A2,2,0,0,1,85.32,62.83ZM87.82,4a4,4,0,1,0-4,4A4,4,0,0,0,87.82,4Zm4.24,60.67a2.34,2.34,0,0,0-1.69.66,4.18,4.18,0,0,0,0,4.66,2.45,2.45,0,0,0,3.37,0,4.18,4.18,0,0,0,0-4.66A2.34,2.34,0,0,0,92.06,64.64Zm1.07,4.8a1.54,1.54,0,0,1-1.07.43A1.52,1.52,0,0,1,91,69.44a3.72,3.72,0,0,1,0-3.62,1.51,1.51,0,0,1,1.07-.42,1.53,1.53,0,0,1,1.07.42,3.79,3.79,0,0,1,0,3.62Zm5.41-4.8a2.1,2.1,0,0,0-1.64.71v-.64H96v5.85h.86V67a1.37,1.37,0,0,1,1.45-1.55A1.35,1.35,0,0,1,99.79,67v3.61h.86V66.81a2.19,2.19,0,0,0-.6-1.63A2.09,2.09,0,0,0,98.54,64.64ZM97,48.83H93.23a4.31,4.31,0,0,1-.14.73,6.12,6.12,0,0,1-.5,1.21,2.38,2.38,0,0,1-1.2,1.06,5.24,5.24,0,0,1-2.08.36q-4.23,0-4.23-4.47V37.63q0-4.47,4.16-4.47c2.32,0,3.64,1,4,3H97a5.57,5.57,0,0,0-2.16-4.52A8.81,8.81,0,0,0,89.1,29.9a8.11,8.11,0,0,0-5.56,1.87q-2.13,1.88-2.13,5.86V47.72q0,4,2.11,5.86a8.05,8.05,0,0,0,5.55,1.87,8.71,8.71,0,0,0,5.72-1.8A5.76,5.76,0,0,0,97,49ZM76.3,12.71a4,4,0,1,0,4,4A4,4,0,0,0,76.3,12.71Zm-36,12.71a4,4,0,1,0,4,4A4,4,0,0,0,40.28,25.42ZM33,12.71a4,4,0,1,0,4,4A4,4,0,0,0,33,12.71Zm29,0a4,4,0,1,0,4,4A4,4,0,0,0,62.06,12.71ZM4,38.12a4,4,0,1,0,4,4A4,4,0,0,0,4,38.12Zm14.53,0a4,4,0,1,0,4,4A4,4,0,0,0,18.5,38.12Zm7.26-12.7a4,4,0,1,0,4,4A4,4,0,0,0,25.76,25.42ZM11.24,50.83a4,4,0,1,0,4,4A4,4,0,0,0,11.24,50.83ZM54.8,25.42a4,4,0,1,0,4,4A4,4,0,0,0,54.8,25.42Zm77,28.09q1.88-1.74,1.87-5.55V47.3a6.63,6.63,0,0,0-.9-3.79,5.67,5.67,0,0,0-2.67-2q3-1.32,3-5.61,0-3.36-1.91-4.68a8.79,8.79,0,0,0-5.09-1.32h-7.94V55.24h8.66A7.13,7.13,0,0,0,131.8,53.51ZM121.75,33.16h4q3.57,0,3.57,3.33c0,2.38-1.16,3.57-3.5,3.57h-4.12Zm0,18.82V43h4.33a4,4,0,0,1,2.93,1,4.34,4.34,0,0,1,1,3.19v.55q0,4.31-3.92,4.3Zm-9.56,1.6q2.11-1.87,2.12-5.86V29.9h-7.63l-1,3.26h5V47.72c0,3-1.38,4.47-4.16,4.47a3.85,3.85,0,0,1-3-1.11,4.11,4.11,0,0,1-1-2.25H98.71a5.9,5.9,0,0,0,2.2,4.8,8.68,8.68,0,0,0,5.7,1.82A8.1,8.1,0,0,0,112.19,53.58ZM172.4,64.64c-1.49,0-2.41,1.1-2.41,3,0,2.07,1,3,2.57,3a2.66,2.66,0,0,0,2.14-.91l-.58-.51a1.92,1.92,0,0,1-1.54.67c-1.12,0-1.73-.74-1.73-2h4v-.39C174.81,65.73,173.92,64.64,172.4,64.64Zm-1.55,2.58a2.41,2.41,0,0,1,.18-1,1.51,1.51,0,0,1,2.74,0,2.41,2.41,0,0,1,.18,1Zm6.37-1.8v-.71h-.86v5.85h.86V67a1.42,1.42,0,0,1,1.4-1.57,1.24,1.24,0,0,1,1,.42l.63-.64a1.84,1.84,0,0,0-1.41-.54A2,2,0,0,0,177.22,65.42Zm-10.68-.78a1.9,1.9,0,0,0-1.66.74V62.09H164v8.47h.86v-.7a1.9,1.9,0,0,0,1.66.77,2.05,2.05,0,0,0,1.43-.51,3.53,3.53,0,0,0,.71-2.49,3.5,3.5,0,0,0-.71-2.48A2.05,2.05,0,0,0,166.54,64.64Zm-.18,5.23c-1.28,0-1.48-1.1-1.48-2.24s.2-2.23,1.48-2.23,1.47,1.09,1.47,2.23S167.63,69.87,166.36,69.87Zm17.51-5.23a2.11,2.11,0,0,0-1.65.71v-.64h-.86v5.85h.86V67a1.38,1.38,0,0,1,1.46-1.55A1.36,1.36,0,0,1,185.12,67v3.61H186V66.81a2.16,2.16,0,0,0-.61-1.63A2.08,2.08,0,0,0,183.87,64.64ZM105,67.26l-.94-.08c-.74-.06-1-.36-1-.86s.45-1,1.31-1a2.51,2.51,0,0,1,1.56.46l.56-.55a3.29,3.29,0,0,0-2.11-.63c-1.25,0-2.16.64-2.16,1.71s.61,1.47,1.76,1.57l1,.08c.68.06,1,.35,1,.86,0,.69-.6,1-1.56,1a2.41,2.41,0,0,1-1.83-.68l-.57.57a3.23,3.23,0,0,0,2.41.85c1.42,0,2.38-.66,2.38-1.79S106.06,67.36,105,67.26Zm52.18-2.62a2.28,2.28,0,0,0-2.07.86l.58.54a1.55,1.55,0,0,1,1.48-.67c1.07,0,1.5.43,1.5,1.29v.56h-1.76c-1.31,0-2,.66-2,1.68a1.69,1.69,0,0,0,.44,1.19,2.1,2.1,0,0,0,1.66.54A2.06,2.06,0,0,0,158.7,70v.56h.86v-4C159.56,65.31,158.79,64.64,157.21,64.64Zm1.49,3.85a1.31,1.31,0,0,1-.3,1,1.69,1.69,0,0,1-1.31.39c-.93,0-1.34-.32-1.34-1s.42-1,1.31-1h1.64Zm40.43-1.23-.94-.08c-.74-.06-1-.36-1-.86s.46-1,1.31-1a2.54,2.54,0,0,1,1.57.46l.56-.55a3.33,3.33,0,0,0-2.11-.63c-1.26,0-2.16.64-2.16,1.71s.61,1.47,1.75,1.57l1,.08c.68.06,1,.35,1,.86,0,.69-.59,1-1.56,1a2.39,2.39,0,0,1-1.82-.68l-.57.57a3.22,3.22,0,0,0,2.4.85c1.42,0,2.39-.66,2.39-1.79S200.16,67.36,199.13,67.26ZM193.82,63h1v-1h-1Zm.05,7.52h.86V64.71h-.86Zm-4-5.92a2.3,2.3,0,0,0-1.68.66,4.13,4.13,0,0,0,0,4.66,2.27,2.27,0,0,0,1.68.67,2.3,2.3,0,0,0,1.68-.67,4.18,4.18,0,0,0,0-4.66A2.34,2.34,0,0,0,189.9,64.64Zm1.07,4.8a1.5,1.5,0,0,1-1.07.43,1.48,1.48,0,0,1-1.06-.43,3.65,3.65,0,0,1,0-3.62,1.47,1.47,0,0,1,1.06-.42,1.5,1.5,0,0,1,1.07.42,3.72,3.72,0,0,1,0,3.62ZM117.84,69V62.09H117V69a1.4,1.4,0,0,0,1.49,1.56h.62v-.74h-.46C118,69.82,117.84,69.53,117.84,69ZM114.27,63h1v-1h-1Zm36.88,2.38v-.71h-.86v5.85h.86V67a1.43,1.43,0,0,1,1.41-1.57,1.22,1.22,0,0,1,1,.42l.63-.64a1.8,1.8,0,0,0-1.4-.54A2,2,0,0,0,151.15,65.42Zm-40.78-.78c-1.49,0-2.4,1.1-2.4,3,0,2.07,1,3,2.56,3a2.69,2.69,0,0,0,2.15-.91l-.59-.51a1.91,1.91,0,0,1-1.54.67c-1.12,0-1.73-.74-1.73-2h4v-.39C112.78,65.73,111.89,64.64,110.37,64.64Zm-1.55,2.58a2.6,2.6,0,0,1,.18-1,1.51,1.51,0,0,1,2.75,0,2.43,2.43,0,0,1,.17,1Zm5.5,3.34h.86V64.71h-.86Zm26.77-2.69c0,1.25-.63,1.95-1.74,1.95a1.63,1.63,0,0,1-1.33-.56l-.61.61a2.56,2.56,0,0,0,1.94.76A2.5,2.5,0,0,0,142,68v-5.9h-.91Zm-14.68-2.49a1.88,1.88,0,0,0-1.65-.74,2,2,0,0,0-1.43.51,3.46,3.46,0,0,0-.72,2.48,3.49,3.49,0,0,0,.72,2.49,2,2,0,0,0,1.43.51,1.93,1.93,0,0,0,1.67-.77v.7h.84V62.09h-.86ZM125,69.87c-1.28,0-1.48-1.1-1.48-2.24s.2-2.23,1.48-2.23,1.46,1.09,1.46,2.23S126.22,69.87,125,69.87Zm22.64-1.56a1.39,1.39,0,0,1-1.47,1.56,1.36,1.36,0,0,1-1.43-1.56v-3.6h-.86v3.73a2.16,2.16,0,0,0,.6,1.64,2.08,2.08,0,0,0,1.52.55,2.12,2.12,0,0,0,1.65-.73v.66h.85V64.71h-.86Zm-14.76,0a1.39,1.39,0,0,1-1.47,1.56,1.36,1.36,0,0,1-1.43-1.56v-3.6h-.86v3.73a2.16,2.16,0,0,0,.6,1.64,2.06,2.06,0,0,0,1.51.55,2.15,2.15,0,0,0,1.66-.73v.66h.85V64.71h-.86Z"/><path d="M40.28,50.83a4,4,0,1,0,4,4A4,4,0,0,0,40.28,50.83ZM33,38.12a4,4,0,1,0,4,4A4,4,0,0,0,33,38.12Zm14.52,0a4,4,0,1,0,4,4A4,4,0,0,0,47.54,38.12Zm14.52,0a4,4,0,1,0,4,4A4,4,0,0,0,62.06,38.12Z"/></g></g></svg>