<svg xmlns="http://www.w3.org/2000/svg" viewBox="0 0 227.92 15"><g id="Layer_2" data-name="Layer 2"><g id="Layer_1-2" data-name="Layer 1"><polyline points="0 3.14 7.66 3.14 7.66 5 2.06 5 2.06 7.84 7.37 7.84 7.37 9.71 2.06 9.71 2.06 12.84 7.96 12.84 7.96 14.7 0 14.7 0 3.14"/><path d="M11,3.14h4c2.22,0,4.32.72,4.32,3.31a3,3,0,0,1-2.68,3.14l3.07,5.11H17.2L14.52,9.8H13v4.9H11V3.14M14.62,8c1.16,0,2.52-.1,2.52-1.6S15.86,4.9,14.8,4.9H13V8Z"/><polyline points="22.24 3.14 24.96 3.14 30.57 11.73 30.6 11.76 30.57 11.76 30.6 11.73 30.6 3.14 32.66 3.14 32.66 14.7 30.05 14.7 24.33 5.83 24.3 5.83 24.3 14.7 22.24 14.7 22.24 3.14"/><path d="M41.89,5.62a2.43,2.43,0,0,0-2-.91c-.95,0-1.9.42-1.9,1.48,0,2.32,5.49,1,5.49,5.12,0,2.48-2,3.69-4.23,3.69a4.77,4.77,0,0,1-3.79-1.57L37,11.93a2.75,2.75,0,0,0,2.29,1.21c.94,0,2-.53,2-1.59,0-2.53-5.49-1.08-5.49-5.21,0-2.39,2.13-3.5,4.27-3.5A4.72,4.72,0,0,1,43.39,4l-1.5,1.58"/><polyline points="48.95 5 45.4 5 45.4 3.14 54.55 3.14 54.55 5 51.01 5 51.01 14.7 48.95 14.7 48.95 5"/><path d="M73,13.85A9.92,9.92,0,0,1,68.24,15a5.8,5.8,0,0,1-6.11-6,5.82,5.82,0,0,1,6.11-6.13A6.59,6.59,0,0,1,72.8,4.3L71.28,5.83a4.34,4.34,0,0,0-3-1.12,3.92,3.92,0,0,0-4,4.13,4,4,0,0,0,4,4.3A5.51,5.51,0,0,0,71,12.53V9.8H68.6V7.94H73v5.91"/><path d="M81.94,2.84A5.74,5.74,0,0,1,88.09,8.9,5.89,5.89,0,0,1,81.94,15a5.8,5.8,0,0,1-6.12-6,5.82,5.82,0,0,1,6.12-6.13m0,10.3a4,4,0,0,0,4-4.3,4,4,0,1,0-8,0A4,4,0,0,0,82,13.14ZM80.27,0a1.2,1.2,0,0,1,1.27,1.18,1.26,1.26,0,0,1-2.51,0A1.21,1.21,0,0,1,80.27,0Zm3.36,0a1.21,1.21,0,0,1,1.28,1.18,1.26,1.26,0,0,1-2.52,0A1.22,1.22,0,0,1,83.63,0Z"/><polyline points="91.04 3.14 93.09 3.14 93.09 7.74 98.5 7.74 98.5 3.14 100.56 3.14 100.56 14.7 98.5 14.7 98.5 9.61 93.09 9.61 93.09 14.7 91.04 14.7 91.04 3.14"/><polyline points="104.12 3.14 106.85 3.14 112.45 11.73 112.49 11.76 112.45 11.76 112.49 11.73 112.49 3.14 114.55 3.14 114.55 14.7 111.93 14.7 106.21 5.83 106.18 5.83 106.18 14.7 104.12 14.7 104.12 3.14"/><polyline points="118.11 3.14 125.77 3.14 125.77 5 120.17 5 120.17 7.84 125.48 7.84 125.48 9.71 120.17 9.71 120.17 12.84 126.06 12.84 126.06 14.7 118.11 14.7 118.11 3.14"/><path d="M129.07,3.14h4c2.22,0,4.31.72,4.31,3.31a3,3,0,0,1-2.68,3.14l3.08,5.11h-2.49l-2.68-4.9h-1.5v4.9h-2.06V3.14M132.73,8c1.16,0,2.52-.1,2.52-1.6S134,4.9,132.91,4.9h-1.78V8Z"/><path d="M146.76,12.56A2.93,2.93,0,0,0,149.41,14a2.35,2.35,0,0,0,2.6-2.27c0-3.24-6-1.34-6-5.74,0-2.06,1.76-3.17,3.71-3.17a3.77,3.77,0,0,1,3.15,1.46L152,5a2.61,2.61,0,0,0-2.26-1.15c-1.39,0-2.6.72-2.6,2.19,0,3.48,6,1.39,6,5.74a3.32,3.32,0,0,1-3.6,3.25,4.32,4.32,0,0,1-3.75-1.75l1-.69"/><polyline points="159.09 4.12 155.13 4.12 155.13 3.14 164.12 3.14 164.12 4.12 160.16 4.12 160.16 14.7 159.09 14.7 159.09 4.12"/><rect x="166.88" y="3.14" width="1.08" height="11.57"/><polyline points="172.1 3.14 179.03 3.14 179.03 4.12 173.18 4.12 173.18 8.23 178.62 8.23 178.62 9.21 173.18 9.21 173.18 14.7 172.1 14.7 172.1 3.14"/><polyline points="184.74 4.12 180.78 4.12 180.78 3.14 189.77 3.14 189.77 4.12 185.81 4.12 185.81 14.7 184.74 14.7 184.74 4.12"/><path d="M200.75,10.28c0,2.46-1.07,4.72-4.22,4.72s-4.21-2.26-4.21-4.72V3.14h1.07V10c0,1.65.45,4,3.14,4s3.14-2.37,3.14-4V3.14h1.08v7.14"/><polyline points="204.68 3.14 206.07 3.14 213.12 13.27 213.15 13.27 213.15 3.14 214.23 3.14 214.23 14.7 212.84 14.7 205.79 4.58 205.76 4.58 205.76 14.7 204.68 14.7 204.68 3.14"/><path d="M227.92,14A8.5,8.5,0,0,1,223.6,15a5.79,5.79,0,0,1-6-6.08,5.79,5.79,0,0,1,6-6.08,5.61,5.61,0,0,1,4.17,1.6l-.78.82a4.72,4.72,0,0,0-3.39-1.44,4.78,4.78,0,0,0-4.9,5.1,4.78,4.78,0,0,0,4.9,5.1,6.34,6.34,0,0,0,3.24-.69V9.44h-2.78v-1h3.86V14"/></g></g></svg>