<svg xmlns="http://www.w3.org/2000/svg" viewBox="0 0 198.43 64.75"><g id="Layer_2" data-name="Layer 2"><g id="Layer_1-2" data-name="Layer 1"><path d="M168.46,18c0,2.75,1.23,4.45,4.12,4.45a9.15,9.15,0,0,0,2.65-.39V19.2a2.76,2.76,0,0,1-1.3.33c-1.49,0-1.65-.89-1.65-2.19v-9h2.95V5.47h-2.95V.73L168.53,2V5.47H167V8.36h1.47ZM51.12,7.86a4.52,4.52,0,0,0-4.24-2.72c-4.51,0-5.71,4.94-5.71,8.59s1.26,8.76,5.74,8.76a4.65,4.65,0,0,0,4.38-2.82l.1,2.45H55V0H51.12Zm-3,11.77c-2.56,0-2.92-4-2.92-5.9S45.55,8,48.14,8s3,3.59,3,5.71S50.86,19.63,48.14,19.63ZM35.06,5.14a4.77,4.77,0,0,0-4.41,2.79l-.1-2.46H27c0,1.39.1,2.72.1,4.11V22.12H31V11.64c0-1.59.82-3.55,2.72-3.55,1.72,0,2.28,1.46,2.28,3.05v11h3.85V10.94C39.84,7.79,38.55,5.14,35.06,5.14ZM198.43,38V32.49H193v-9l-7.11,2.32v6.67h-4.65V38h4.52V56.32c0,5.21,2.33,8.43,7.8,8.43a17.51,17.51,0,0,0,4.89-.7V58.6a5.16,5.16,0,0,1-2.31.54c-2.83,0-3.14-1.69-3.14-4.15V38Zm-28.52-.25-.13-5.22h-6.66c.06,2.64.19,5.15.19,7.79v23.6l-13-41.4a13.42,13.42,0,0,0,4.06-.84v-3.1a8.55,8.55,0,0,1-4.21,1.26c-3,0-4.11-2.56-4.11-5.08h9.15V13.53c0-4-1.46-8.39-6.3-8.39-4.58,0-6.63,4.31-6.63,8.59,0,4.05,1.42,7.31,4.85,8.38h-5.6V0h-3.55V17.44L131.2,0h-5.31V22.12h3.52V4.71l6.76,17.41h5.31L128.21,64.05H136l2.82-10.25h13.77l2.83,10.25H170.6V48c0-6.1,3.78-10.7,8.38-10V32C174.84,31.27,171.55,34.16,169.91,37.71Zm-21-30c2.19,0,2.66,2.88,2.66,4.81H146C146,10.61,146.77,7.73,148.89,7.73Zm-8.8,40.47,5.47-19.55L151.1,48.2ZM18.71,5.14c-4.71,0-7.13,4.24-7.13,8.59,0,4.54,2.09,8.76,7.13,8.76s7.1-4.35,7.1-8.76S23.78,5.14,18.71,5.14Zm0,14.46c-2.69,0-3.08-3.78-3.08-5.87S16.09,8,18.71,8s3.05,3.68,3.05,5.74S21.4,19.6,18.71,19.6ZM0,22.12H4.08V12.4h6.73V9.25H4.08V3.18h7.06V0H0ZM85.26,0H81.38V3.18h3.88Zm77.25,17.68a2.17,2.17,0,0,1-2.32,1.92A9.46,9.46,0,0,1,156,18.54V21.8a15.87,15.87,0,0,0,4.65.69c3.18,0,5.7-1.86,5.7-5.18,0-5.11-6.89-4.41-6.89-7.49,0-1.16,1.19-1.83,2.29-1.83a9.3,9.3,0,0,1,3.58.86V5.7a12.72,12.72,0,0,0-3.75-.56c-2.75,0-6,1.49-6,4.81C155.58,15.16,162.51,14.79,162.51,17.68ZM85.23,5.47H81.38V22.12h3.85ZM72.46,18c0,2.75,1.22,4.45,4.11,4.45a9.19,9.19,0,0,0,2.77-.43V19.14a2.9,2.9,0,0,1-1.41.39c-1.49,0-1.66-.89-1.66-2.19v-9h3.07V5.47H76.27V.73L72.52,2V5.47H70.07V8.36h2.39ZM189.91,0h-3l-2.09,3.85h2.45ZM106.28,32.15l-.06-2.75H102.7c0,1.39.1,2.71.1,4.11V46h3.85V37.59c0-2.16.76-5,3.38-5a6.83,6.83,0,0,1,1.09.16V29.13a3.73,3.73,0,0,0-.56-.07A4.68,4.68,0,0,0,106.28,32.15ZM94,5.14c-4.71,0-7.13,4.24-7.13,8.59,0,4.54,2.09,8.76,7.13,8.76s7.1-4.35,7.1-8.76S99.1,5.14,94,5.14ZM94,19.6c-2.68,0-3.08-3.78-3.08-5.87S91.4,8,94,8s3,3.68,3,5.74S96.71,19.6,94,19.6ZM120.94,46h3.85V22.13h-3.85Zm12.25-23.91H129.4l-1.59,7.27h3.09Zm-22.48-17a4.76,4.76,0,0,0-4.41,2.79l-.1-2.46h-3.52c0,1.39.1,2.72.1,4.11V22.12h3.85V11.64c0-1.59.83-3.55,2.72-3.55,1.72,0,2.29,1.46,2.29,3.05v11h3.85V10.94C115.49,7.79,114.19,5.14,110.71,5.14ZM100.36,29.4H96.52V39.84c0,1.59-.8,3.58-2.69,3.58-1.72,0-2.25-1.46-2.25-3.05v-11H87.73V40.57c0,3.15,1.26,5.84,4.74,5.84a4.72,4.72,0,0,0,4.38-2.79L97,46h3.51c0-1.39-.1-2.72-.1-4.11Zm-34.88-.34a4.82,4.82,0,0,0-4.28,2.82l-.1-2.48H57.52V53.21h0v.59h3.85V51.52h0v-7.8a4.39,4.39,0,0,0,4.21,2.69c4.38,0,5.74-5.21,5.74-8.76C71.32,33.91,70.12,29.06,65.48,29.06Zm-1.13,14.5c-2.72,0-3-3.69-3-5.91s.46-5.7,3-5.7,2.88,3.81,2.88,5.7S66.91,43.56,64.35,43.56ZM61.24,22.49a4.81,4.81,0,0,0,4.48-2.66l.1,2.29h3.65c-.07-1.06-.14-2.16-.14-3.65V10.94c0-3.55-1.62-5.8-6.13-5.8a12.77,12.77,0,0,0-5.14,1.11V9.38a8.77,8.77,0,0,1,4.51-1.55c2.32,0,3.08,1.36,3.08,3.25v.82H64.52c-3.68,0-8.09,1.36-8.09,5.74A4.61,4.61,0,0,0,61.24,22.49Zm3.85-8.4h.56v1.43c0,2-.83,4.28-3.12,4.28a2.31,2.31,0,0,1-2.42-2.46C60.11,14.62,62.73,14.09,65.09,14.09Zm111.28,8h3.85V0h-3.85ZM79.46,29.06c-4.71,0-7.13,4.25-7.13,8.59,0,4.55,2.09,8.76,7.13,8.76s7.09-4.35,7.09-8.76S84.53,29.06,79.46,29.06Zm0,14.46c-2.69,0-3.09-3.78-3.09-5.87s.47-5.73,3.09-5.73,3.05,3.68,3.05,5.73S82.14,43.52,79.46,43.52Zm108.94-21a13.17,13.17,0,0,0,4.58-.85v-3.1a8.59,8.59,0,0,1-4.22,1.26c-3,0-4.11-2.56-4.11-5.08h9.15V13.53c0-4-1.46-8.39-6.3-8.39-4.57,0-6.63,4.31-6.63,8.59C180.87,18.7,183,22.49,188.4,22.49Zm-.86-14.76c2.19,0,2.65,2.88,2.65,4.81h-5.54C184.65,10.61,185.41,7.73,187.54,7.73Z"/></g></g></svg>