<svg xmlns="http://www.w3.org/2000/svg" viewBox="0 0 255.12 29.56"><g id="Layer_2" data-name="Layer 2"><g id="Layer_1-2" data-name="Layer 1"><path d="M21.35.09l0,1.6.16,0h.56c1.16,0,1.73.3,1.9,1v.76l.29,21.67L5.58.3,0,.37,0,1.94H1.07c1.28,0,1.76.26,1.85.94v.2l0,.88L3.27,26c0,1.28-.62,1.81-2.18,1.79H.52l-.16,0,0,1.49,6.82-.1,0-1.48H7l-.48,0c-1.52.06-1.85-.3-1.87-2L4.38,3.85,23.66,29l2.21,0L25.53,3.36c0-1.36.41-1.81,1.86-1.79h.52l.16,0,0-1.61Zm10.36,10h.65c1.1,0,1.4.28,1.4,1.24V27c0,1-.3,1.27-1.43,1.24h-.48l-.14,0v1h6.13v-1l-.19,0h-.54c-.81,0-1.21-.25-1.29-.71V11.34c0-.93.31-1.24,1.35-1.24l.51,0h.16V9H31.71Zm24.36-.84L54.72,9l-.23,0c-.45-.05-.93-.11-1.38-.14-8.89-.56-13.39,4.51-11.93,12.58,1.1,6.19,6.11,9.26,14.18,7.68l.76-.17.29-.05.33-.09V27.54l-.45.2-.39.14-.76.26c-6.7,1.94-10.92-.9-11.88-7.49a12.71,12.71,0,0,1,0-3.43c.62-4.61,2.65-6.84,6.05-7.34,4.17-.65,6,.73,6.31,3.49a3.26,3.26,0,0,1,0,.56v1.18h1.12V9.34l-.56-.05Zm26.44,19a2,2,0,0,1-1.69-.71l0-.08L80.54,27,72.35,9H67.94v1.1l.45.06.56,0c.62.14.79.56.48,1.23l-.23.48L62.06,27l-.23.48,0,.05a1.91,1.91,0,0,1-.79.6,2.7,2.7,0,0,1-.95.11h-.37l-.14,0v1h5.26v-1h0l-.51,0c-1,0-1.32-.25-1.21-.71l0-.08.22-.45,2.85-5.91h9.39L78.21,27l.19.45,0,.08a.3.3,0,0,1,0,.23c-.05.34-.34.51-1.1.48l-.47,0H76.8v1h6.28v-1l-.23,0ZM66.59,20.06l4.3-9.17,4.19,9.17Zm15.27-4h1V14.41a4.5,4.5,0,0,1,0-.65c.22-3.1.79-3.63,3.57-3.63h2.87V27.54c-.08.46-.5.74-1.38.71l-.39,0h-.11v1H93.2v-1h-.11l-.34,0c-1,0-1.35-.31-1.35-1.24V10.13h3.54c2.09,0,2.88.7,2.9,2.53l0,1.55v1.88h1.07V9H81.86Zm20-6h.65c1.1,0,1.41.28,1.41,1.24V27c0,1-.31,1.27-1.44,1.24H102l-.14,0v1H108v-1l-.2,0h-.53c-.82,0-1.21-.25-1.3-.71V11.34c0-.93.31-1.24,1.35-1.24l.51,0H108V9h-6.14ZM116.5,20.82h9.21V18.25H116.5ZM141.78,9H133v1.13l.14,0h.45c1.07,0,1.43.31,1.43,1.24V27c0,.93-.33,1.27-1.46,1.24l-.42,0H133v1h9.7c5.32,0,8.45-3.35,8.39-10.27S147.91,9,141.78,9Zm.76,19.22h-5.49V10.13H142c5,0,6.81,1.91,6.81,8.75C148.76,26.31,147.07,28.22,142.54,28.22Zm10.72-18.09h.53c.9,0,1.35.22,1.47.67V27c0,.93-.31,1.27-1.41,1.24l-.45,0h-.14v1h16.12V23.33h-1V24.9a2.91,2.91,0,0,1,0,.51c-.2,2.36-.73,2.81-3.29,2.81h-7.8V18.79H166v-.95h-8.64V10.16h7.91c2.67,0,3.15.5,3.15,3.18V14.8h1V9H153.26Zm44.94,15a3.57,3.57,0,0,1,0,.56c-.23,1.94-.88,2.51-3,2.51h-8.1V11.23l0-.45v-.09c.08-.45.5-.73,1.32-.7l.37,0h.11V9H183v1l.17,0h.47c1.05,0,1.38.31,1.38,1.23V27.54c-.08.46-.5.71-1.4.68H183v1h16.18V23.21h-1Zm16.54-15,.11,0h.37c1,0,1.38.31,1.38,1.24V22.59c0,3.63-2.34,6-6.5,6s-6.31-2.28-6.31-6V10.8c.15-.5.51-.73,1.33-.7h.36l.11,0V9h-5.65v1.13h.11l.37,0c1,0,1.38.31,1.38,1.24V22.85a6.18,6.18,0,0,0,5.54,6.47c6.56,1.18,10.33-2.05,10.33-6.87V11.34c0-.59.05-.76.28-1s.45-.28,1-.25h.4l.14,0V9h-4.76Zm21.61,13.95c0,2.88-.84,3.86-3.46,4.11a7.91,7.91,0,0,1-.85.06H224L237.17,9H221.89v6.45H223V14.12c0-3,1-4,4.67-4H234L220.73,29.26h16.61V22.45h-1Zm18.77-9.28V9H239v1.13h.53c.9,0,1.35.22,1.47.67V27c0,.93-.31,1.27-1.41,1.24l-.45,0H239v1h16.12V23.33h-1V24.9a2.91,2.91,0,0,1,0,.51c-.2,2.36-.73,2.81-3.29,2.81H243V18.79h8.67v-.95H243V10.16h7.91c2.67,0,3.15.5,3.15,3.18V14.8Z"/></g></g></svg>