<svg xmlns="http://www.w3.org/2000/svg" viewBox="0 0 218.56 34.11"><g id="Layer_2" data-name="Layer 2"><g id="Layer_1-2" data-name="Layer 1"><path d="M50.45,24.58H45.2V19.3H39v.81a6.2,6.2,0,0,0,6.49,6.48h4.65a6.2,6.2,0,0,0,6.49-6.48V19.3H50.45ZM50.14,7.15H45.49A6.22,6.22,0,0,0,39,13.64v.74h6.16V9.17h5.29v5.21h6.18v-.74A6.22,6.22,0,0,0,50.14,7.15Z"/><path d="M11.24,22.4H6.59A2,2,0,0,1,4.3,20.11V13.64a2,2,0,0,1,2.29-2.29h4.65a2,2,0,0,1,2.29,2.29v6.47A2,2,0,0,1,11.24,22.4Zm0-15.35H6.59A6.31,6.31,0,0,0,0,13.64V34.11H4.3V26.26s.18.1.18.1a7.34,7.34,0,0,0,2.11.34h4.65a6.3,6.3,0,0,0,6.59-6.59V13.64A6.3,6.3,0,0,0,11.24,7.05Z"/><path d="M74.1,7.05H69.44a7.45,7.45,0,0,0-2.1.36l-.23.06V0H62.89l0,26.7h4.25V13.64a2.08,2.08,0,0,1,2.33-2.29H74.1a2,2,0,0,1,2.29,2.29V26.7h4.3V13.64A6.31,6.31,0,0,0,74.1,7.05Z"/><path d="M190.55,26.7h4.27V7.05h-4.27ZM194.82,0h-4.27V4.55h4.27Z"/><path d="M183.89,11.35V7.05h-5.84V0h-4.3v7H170v4.3h3.76v8.76a6.24,6.24,0,0,0,6.59,6.59h3.48V22.43h-3.48a2,2,0,0,1-2.29-2.33V11.35Z"/><path d="M117.36,22.44a2,2,0,0,1-2.28-2.33V0h-4.27V20.11a6.22,6.22,0,0,0,6.56,6.59h3.53V22.43Z"/><path d="M29.88,7.06a6.25,6.25,0,0,0-6.59,6.59V26.7h4.3v-13a2,2,0,0,1,2.29-2.29h5.17V7.07Z"/><path d="M138.59,7.06l-1.92,6.81-2,7.38c-.35,1.18-.38,1.28-1.23,1.28s-.88-.08-1.15-1.05l-4-14.42h-4.49l4.33,15.39c.92,3.23,2.32,4.38,5.33,4.38s4.41-1.17,5.34-4.46L143,7.06Z"/><path d="M93.44,11.1h4.65a2.25,2.25,0,0,1,2.54,2.54V15H90.91V13.64A2.29,2.29,0,0,1,93.44,11.1Zm4.65-4H93.44a6.31,6.31,0,0,0-6.59,6.59v6.47a6.31,6.31,0,0,0,6.59,6.59h10.24V22.43H93.25A2.08,2.08,0,0,1,91,20.11V19h10.74a3,3,0,0,0,3-3V13.64A6.3,6.3,0,0,0,98.09,7.05Z"/><path d="M151.53,14c0-1.79,1-2.94,2.54-2.94h4.65a2.26,2.26,0,0,1,2.54,2.54V15h-9.73Zm7.19-7h-4.65a6.31,6.31,0,0,0-6.59,6.59v6.47a6.31,6.31,0,0,0,6.59,6.59H164.3V22.43H153.87a2.07,2.07,0,0,1-2.28-2.33V19h10.73a3,3,0,0,0,3-3V13.64A6.31,6.31,0,0,0,158.72,7.05Z"/><path d="M213.07,22.65h-5.79c-2.28,0-2.54-1.11-2.54-1.95,0-1.4.42-1.76,2.25-1.94l6.68-.72.87-.2v3.37C214.55,22.22,214.08,22.65,213.07,22.65Zm-1-15.6h-8.63v4.3h8.63a1.9,1.9,0,0,1,2.17,1.81v.3c0,.25-.25.45-1.1.57l-6.53.67c-5.15.56-5.91,4-5.91,6,0,4.15,3.3,6,6.59,6h5.79a5.25,5.25,0,0,0,5.49-5.49V13.64A6.26,6.26,0,0,0,212.06,7.05Z"/></g></g></svg>