<svg xmlns="http://www.w3.org/2000/svg" viewBox="0 0 86.1 46.27"><defs><style>.cls-1{fill:#231f20;}.cls-2{fill:none;}</style></defs><g id="Ebene_2" data-name="Ebene 2"><g id="Gepfadet"><path class="cls-1" d="M11.81,18.8v4.84a4.46,4.46,0,0,1-.47,2.28,3.37,3.37,0,0,1-1.63,1.35L9.48,27a2.25,2.25,0,0,0,1-1,4.63,4.63,0,0,0,.38-2.11v-5c0-.62-.54-.6-1-.6v-.41l1.41,0,1.33,0v.41C12.3,18.2,11.81,18.18,11.81,18.8Z"/><path class="cls-1" d="M18.3,25.42a3.51,3.51,0,0,1-3.72-3.78,3.78,3.78,0,0,1,3.91-4.05c2.42,0,3.65,1.75,3.65,3.92A3.76,3.76,0,0,1,18.3,25.42Zm.14-7.27c-1.7,0-2.73,1.37-2.73,3.32,0,1.43.49,3.39,2.7,3.39,1.48,0,2.61-1,2.61-3.22C21,19.8,20.38,18.15,18.44,18.15Z"/><path class="cls-1" d="M30.74,25.21l-1.3,0v-.41c.33,0,.82,0,.82-.6V21.66H25.81v2.56c0,.62.49.6.82.6v.41l-1.3,0-1.3,0v-.41c.33,0,.82,0,.82-.6V18.8c0-.62-.49-.6-.82-.6v-.41l1.3,0,1.3,0v.41c-.33,0-.82,0-.82.6v2.36h4.45V18.8c0-.62-.49-.6-.82-.6v-.41l1.32,0,1.27,0v.41c-.32,0-.81,0-.81.6v5.42c0,.62.49.6.81.6v.41Z"/><path class="cls-1" d="M41.18,19v6.28h-.56l-4.84-6.16v5c0,.69.55.75,1,.75v.41l-1.27,0-1.17,0v-.41c.33,0,.81-.06.81-.75v-5c0-.83-.32-.91-.94-.91v-.41h1.94l4.39,5.74V19c0-.69-.54-.75-1-.75v-.41l1.28,0,1.17,0v.41C41.66,18.2,41.18,18.26,41.18,19Z"/><path class="cls-1" d="M46.09,25.29a8.78,8.78,0,0,1-1.88-.36H44s0-.54,0-.86,0-.86,0-.86h.41c0,1,.59,1.52,1.78,1.52.84,0,1.67-.37,1.67-1.36s-1-1.25-1.9-1.61S44,21,44,19.71a1.75,1.75,0,0,1,.94-1.58,3,3,0,0,1,1.51-.36,13.23,13.23,0,0,1,1.68.24h.21s0,.54,0,.87,0,.83,0,.83h-.42c0-.5-.11-1.39-1.49-1.39a2.07,2.07,0,0,0-1,.22,1,1,0,0,0-.51.92c0,.93.89,1.17,1.79,1.52s2.11.78,2.11,2S47.73,25.29,46.09,25.29Z"/><path class="cls-1" d="M54.52,25.42a3.51,3.51,0,0,1-3.72-3.78,3.78,3.78,0,0,1,3.91-4.05c2.42,0,3.65,1.75,3.65,3.92A3.76,3.76,0,0,1,54.52,25.42Zm.14-7.27c-1.71,0-2.73,1.37-2.73,3.32,0,1.43.49,3.39,2.7,3.39,1.48,0,2.61-1,2.61-3.22C57.24,19.8,56.6,18.15,54.66,18.15Z"/><path class="cls-1" d="M67,19v6.28h-.56l-4.84-6.16v5c0,.69.55.75,1,.75v.41l-1.27,0-1.17,0v-.41c.33,0,.81-.06.81-.75v-5c0-.83-.32-.91-.94-.91v-.41H62l4.39,5.74V19c0-.69-.54-.75-1-.75v-.41l1.28,0,1.17,0v.41C67.5,18.2,67,18.26,67,19Z"/><path class="cls-1" d="M18.09,36.64a9.07,9.07,0,0,1-1.89-.36H16s0-.53,0-.86,0-.86,0-.86h.42c0,1,.59,1.53,1.78,1.53.83,0,1.66-.37,1.66-1.37s-1-1.25-1.89-1.61S16,32.3,16,31.06a1.77,1.77,0,0,1,.93-1.58,3.05,3.05,0,0,1,1.52-.36,13.85,13.85,0,0,1,1.68.24h.21s0,.55,0,.87,0,.83,0,.83h-.42c0-.5-.12-1.38-1.49-1.38a2.13,2.13,0,0,0-1,.21,1,1,0,0,0-.5.92c0,.94.88,1.18,1.79,1.53s2.1.77,2.1,2S19.72,36.64,18.09,36.64Z"/><path class="cls-1" d="M28.7,30.87c0-.9-.3-1.13-1.35-1.13s-1.19,0-1.19,0v5.81c0,.63.53.6,1,.6v.42l-1.45,0-1.44,0v-.42c.43,0,1,0,1-.6V29.76s-.19,0-1.16,0-1.35.23-1.35,1.13h-.41s0-.55,0-.88,0-.87,0-.87c1.36,0,2.91,0,3.41,0s2,0,3.42,0c0,0,0,.55,0,.87s0,.88,0,.88Z"/><path class="cls-1" d="M32.2,36.57l-1.3,0v-.42c.33,0,.82,0,.82-.6V30.16c0-.63-.49-.6-.82-.6v-.42l1.3,0,1.29,0v.42c-.33,0-.82,0-.82.6v5.41c0,.63.49.6.82.6v.42Z"/><path class="cls-1" d="M40.52,30.64c0-.89-.31-.93-1.65-.93-1,0-1.06,0-1.38,0V32.6h1.09c1.14,0,1.37,0,1.37-.78h.41c0,.33,0,.57,0,1.12s0,.78,0,1.11h-.42c0-.89-.24-.94-1.36-.94H37.49v2.46c0,.63.53.6,1,.6v.42l-1.42,0-1.33,0v-.42c.33,0,.82,0,.82-.6V30.16c0-.63-.49-.6-.93-.6v-.42l1.44,0,1.94,0c.75,0,1.29,0,1.94,0,0,0,0,.48,0,.75s0,.77,0,.77Z"/><path class="cls-1" d="M49,30.87c0-.9-.29-1.13-1.35-1.13s-1.18,0-1.18,0v5.81c0,.63.53.6,1,.6v.42l-1.45,0-1.45,0v-.42c.44,0,1,0,1-.6V29.76s-.2,0-1.17,0S43,30,43,30.87h-.42s0-.55,0-.88,0-.87,0-.87c1.36,0,2.92,0,3.42,0s2,0,3.42,0c0,0,0,.55,0,.87s0,.88,0,.88Z"/><path class="cls-1" d="M57.7,30.28v3.78c0,2-1.47,2.72-3.17,2.72s-3.06-.63-3.06-2.43V30.16c0-.63-.49-.6-.82-.6v-.42l1.3,0,1.29,0v.42c-.32,0-.81,0-.81.6V34c0,1.54,1,2.08,2.33,2.08s2.29-.67,2.29-2.08V30.28c0-.7-.54-.72-.87-.72v-.42l1.17,0,1.16,0v.42C58.18,29.56,57.7,29.58,57.7,30.28Z"/><path class="cls-1" d="M76,34.43v2a12.94,12.94,0,0,1-2.13.22,4.41,4.41,0,0,1-3.3-1,3.66,3.66,0,0,1-1.07-2.78A3.7,3.7,0,0,1,70.83,30a4.64,4.64,0,0,1,2.92-.86,19.1,19.1,0,0,1,2.14.2l.3,0s0,.32,0,.87,0,.86,0,.86h-.41c0-.77-.38-1.29-2-1.29-2.31,0-3.17,1.11-3.17,3a3.71,3.71,0,0,0,.81,2.5,3.26,3.26,0,0,0,2.53,1A3.6,3.6,0,0,0,75.07,36V34.43c0-.62-.53-.6-1-.6v-.41l1.42,0,1.33,0v.41C76.52,33.83,76,33.81,76,34.43Z"/><path class="cls-1" d="M67.07,30.31v6.28h-.55l-4.83-6.16v5c0,.7.54.75,1,.75v.42l-1.28,0-1.16,0v-.42c.32,0,.8-.05.8-.75v-5c0-.83-.31-.9-.93-.9v-.42H62l4.38,5.75V30.31c0-.7-.54-.75-1-.75v-.42l1.27,0,1.17,0v.42C67.55,29.56,67.07,29.61,67.07,30.31Z"/><path class="cls-1" d="M19.07,10.65a.63.63,0,0,0-.7-.63c-.36,0-.64.21-.64.5a.41.41,0,0,0,.22.35,3.68,3.68,0,0,0,.67.31,2.23,2.23,0,0,1,.91.52,1.07,1.07,0,0,1,.24.69,1.19,1.19,0,0,1-1.34,1.17A1.29,1.29,0,0,1,17,12.21h.59a.79.79,0,0,0,.85.82c.42,0,.71-.23.71-.54a.5.5,0,0,0-.25-.43,3.18,3.18,0,0,0-.65-.31,3.14,3.14,0,0,1-.82-.46,1,1,0,0,1-.3-.72,1.15,1.15,0,0,1,1.27-1.09,1.25,1.25,0,0,1,1.08.52,1.09,1.09,0,0,1,.18.65Z"/><path class="cls-1" d="M23.71,9.56v.52h-1v3.41h-.6V10.08H21V9.56Z"/><path class="cls-1" d="M26.43,9.54l1.34,4h-.63l-.29-.92H25.42l-.29.92H24.5l1.34-4Zm-.3.73L25.58,12h1.11Z"/><path class="cls-1" d="M29.85,9.56l1.73,3v-3h.58v3.93h-.63l-1.75-3v3H29.2V9.56Z"/><path class="cls-1" d="M34.67,9.56V13h1.69v.53H34.05V9.56Z"/><path class="cls-1" d="M40.07,11.19v.52H38.49V13h1.77v.53H37.88V9.56h2.33v.52H38.49v1.11Z"/><path class="cls-1" d="M42.25,9.56l.88,1.69L44,9.56h.68l-1.25,2.33v1.6h-.61v-1.6L41.56,9.56Z"/><path class="cls-1" d="M50.78,9.56v.52h-1v3.41h-.6V10.08h-1V9.56Z"/><path class="cls-1" d="M54.59,11.18V9.56h.6v3.93h-.6V11.68h-1.7v1.81h-.61V9.56h.61v1.62Z"/><path class="cls-1" d="M60.16,11.52c0,1.22-.68,2-1.7,2s-1.69-.82-1.69-2,.69-2,1.69-2S60.16,10.3,60.16,11.52Zm-2.75,0c0,.93.41,1.51,1.05,1.51s1.06-.58,1.06-1.51S59.12,10,58.46,10,57.41,10.59,57.41,11.52Z"/><path class="cls-1" d="M62.67,9.56l1,3.27,1-3.27h.86v3.93h-.56V10.23l-1,3.26h-.62l-1-3.26v3.26H61.8V9.56Z"/><path class="cls-1" d="M68.9,9.54l1.35,4h-.63l-.29-.92H67.9l-.3.92H67l1.33-4Zm-.29.73L68.06,12h1.11Z"/><path class="cls-1" d="M73.55,10.65a.63.63,0,0,0-.7-.63c-.36,0-.64.21-.64.5a.41.41,0,0,0,.22.35,3.68,3.68,0,0,0,.67.31,2.23,2.23,0,0,1,.91.52,1,1,0,0,1,.24.69,1.19,1.19,0,0,1-1.34,1.17,1.28,1.28,0,0,1-1.43-1.35h.58a.79.79,0,0,0,.85.82c.42,0,.71-.23.71-.54a.5.5,0,0,0-.25-.43,3.18,3.18,0,0,0-.65-.31,3,3,0,0,1-.81-.46,1,1,0,0,1-.3-.72,1.14,1.14,0,0,1,1.26-1.09A1.25,1.25,0,0,1,74,10a1.17,1.17,0,0,1,.19.65Z"/><rect class="cls-2" width="86.1" height="46.27"/></g></g></svg>