<svg xmlns="http://www.w3.org/2000/svg" viewBox="0 0 213.93 67.79"><g id="Layer_2" data-name="Layer 2"><g id="Layer_1-2" data-name="Layer 1"><path d="M58.68,54.71C56,54.71,54,57.26,54,61.44c0,3.93,1.77,6.29,5,6.29a8.19,8.19,0,0,0,3.17-.59l-.39-2a5.5,5.5,0,0,1-2.26.47c-1.49,0-2.81-.78-2.84-3.61h6c0-.34.08-.76.08-1.48C62.69,57.13,61.33,54.71,58.68,54.71Zm-2,5.3c0-1.48.6-3.22,1.79-3.22,1,0,1.67,1.19,1.64,3.22Zm19-7.67a3.7,3.7,0,0,1,1.67.34l.51-2.34a4.87,4.87,0,0,0-2.28-.44c-3.12,0-6.69,2.41-6.69,9.15,0,5.41,2.29,8.68,6.3,8.68a6.18,6.18,0,0,0,2.57-.44L77.45,65a4.58,4.58,0,0,1-1.71.31c-2.11,0-3.88-1.69-3.88-6.39S73.81,52.34,75.71,52.34Zm11.83,7.31c0-2.71-.83-4.94-4.11-4.94a7,7,0,0,0-3.48.91l.52,1.9a4.21,4.21,0,0,1,2.36-.71c1.38,0,1.9.94,1.9,2.24v.34c-2.86,0-5.61,1.4-5.61,4.65,0,2.21,1.37,3.75,3.19,3.75A3.11,3.11,0,0,0,85,66.28H85l.16,1.3h2.5a20.14,20.14,0,0,1-.16-2.89Zm-2.73,4a2.18,2.18,0,0,1-.08.65,1.68,1.68,0,0,1-1.58,1.46c-.63,0-1.38-.52-1.38-1.95,0-2.21,2-2.5,3-2.53Zm-62.61,4H25v-18H22.2ZM6.79,52.34a3.66,3.66,0,0,1,1.66.34L9,50.34a4.89,4.89,0,0,0-2.29-.44C3.56,49.9,0,52.31,0,59.05c0,5.41,2.29,8.68,6.29,8.68a6.2,6.2,0,0,0,2.58-.44L8.53,65a4.68,4.68,0,0,1-1.72.31c-2.1,0-3.87-1.69-3.87-6.39S4.89,52.34,6.79,52.34Zm202.38,2.37c-2.71,0-4.74,2.55-4.74,6.73,0,3.93,1.77,6.29,5,6.29a8.19,8.19,0,0,0,3.17-.59l-.39-2a5.5,5.5,0,0,1-2.26.47c-1.48,0-2.81-.78-2.83-3.61h6a14,14,0,0,0,.08-1.48C213.17,57.13,211.82,54.71,209.17,54.71Zm-2,5.3c.06-1.48.6-3.22,1.8-3.22,1,0,1.66,1.19,1.64,3.22ZM19.27,54.92H16.48v8.21a3.41,3.41,0,0,1-.15,1.09,1.55,1.55,0,0,1-1.41,1.25c-1.14,0-1.48-1.27-1.48-3.07V54.92H10.69v7.82c0,3.3.91,5.05,3.22,5.05a3.39,3.39,0,0,0,2.83-1.54h.06L17,67.58h2.39c-.05-1.07-.1-2.32-.1-3.67Zm12.06-3.15-2.78,1v2.19H27v2h1.51v6.58c0,1.87.31,2.81.93,3.43a3.08,3.08,0,0,0,2.24.78,6.53,6.53,0,0,0,1.82-.2l0-2.16a4.82,4.82,0,0,1-.86.08c-.7,0-1.3-.39-1.3-2V56.94h2.44v-2H31.33Zm13,3.15H41.52v8.21a3.41,3.41,0,0,1-.15,1.09A1.56,1.56,0,0,1,40,65.47c-1.14,0-1.48-1.27-1.48-3.07V54.92H35.72v7.82c0,3.3.91,5.05,3.23,5.05a3.39,3.39,0,0,0,2.83-1.54h0L42,67.58h2.39c0-1.07-.11-2.32-.11-3.67Zm5.49,1.92h-.08l-.16-1.92H47.14c0,1.09.1,2.39.1,3.56v9.1H50V60.9a5.27,5.27,0,0,1,.11-1.23,2.48,2.48,0,0,1,2.23-2.18,1.88,1.88,0,0,1,.57,0V54.76a2.72,2.72,0,0,0-.57,0A3,3,0,0,0,49.79,56.84Zm95.34-7.26h-2.76v6.51h-.05a2.28,2.28,0,0,0-2.21-1.38c-2.05,0-4,2.13-4,6.58,0,3.82,1.38,6.5,3.85,6.5a3,3,0,0,0,2.63-1.72h.08l.15,1.51h2.39c0-1-.1-2.39-.1-3.43Zm-2.76,13.53a2.66,2.66,0,0,1-.1.83c-.34,1.27-1,1.56-1.51,1.56-1.17,0-1.84-1.64-1.84-4.19,0-2.26.49-4.24,1.89-4.24.84,0,1.41.89,1.51,1.9a4.25,4.25,0,0,1,.05.78Zm71.56-38.47A11.72,11.72,0,0,0,211.35,17V3.45l-3.3-1.28A28.75,28.75,0,0,0,197.43,0a18.11,18.11,0,0,0-11.09,3.34,13.22,13.22,0,0,0-2.73,2.82c-3-4-7.74-6.16-14-6.16C158.42,0,152,6.91,152,19c0,.73,0,1.45.07,2.15h-3.61V.44H131v2l-.55-.22A28.79,28.79,0,0,0,119.78,0a18.09,18.09,0,0,0-11.09,3.34l-.4.31-.44-.18-3.26-1.3A28.85,28.85,0,0,0,94,0,18.11,18.11,0,0,0,82.87,3.34c-.28.21-.54.44-.8.67V.44H52L51.51,5l-.15,1.22H44.08L43.94,5,43.41.44H26.1l.15,1.23A27.61,27.61,0,0,0,17,0,18.13,18.13,0,0,0,5.88,3.34,12.54,12.54,0,0,0,.76,13v.14l0,19.4L3.32,34A26.26,26.26,0,0,0,17,37.9c6.17,0,10.49-1.95,13.16-4.79l.53,4.34H43.81l1.49-2.59,2.42-4.24,2.43,4.24,1.48,2.59H82.07V35A25.84,25.84,0,0,0,94,37.9c5.47,0,9.49-1.54,12.19-3.86a26.23,26.23,0,0,0,13.63,3.86c4.82,0,8.51-1.2,11.17-3.08v2.63h28.82v-2a19,19,0,0,0,9.84,2.42c5.45,0,9.76-1.64,12.76-4.71l1.41.83a26.23,26.23,0,0,0,13.65,3.88C208.82,37.9,213.93,31.24,213.93,24.64ZM17,32.75a21,21,0,0,1-11-3.17v-7c3.87,2.71,8.62,4.1,11,4.1,2,0,3.56-.45,3.56-2s-1.16-1.91-4.28-2.85c-5-1.5-10.06-3.16-10.06-8.8,0-4.36,4-7.84,10.82-7.84A23.52,23.52,0,0,1,25.74,7v6.27a23,23,0,0,0-8.73-2c-2.13,0-3.07.54-3.07,1.65s1.2,1.56,3.65,2.36c5,1.64,10.73,3.56,10.73,9.34C28.32,29.36,24.14,32.75,17,32.75Zm43.26-.45H54.62l-6.9-12.06L40.83,32.3H35.21L31.92,5.6h6.9l1.69,14.59,5-8.81H49.9l5,8.81L56.62,5.6h6.9Zm16.68,0h-7.2V5.6h7.2Zm17,.45a21.14,21.14,0,0,1-11-3.17v-7c3.87,2.71,8.64,4.1,11,4.1,2,0,3.56-.45,3.56-2s-1.16-1.91-4.28-2.85c-5-1.5-10-3.16-10-8.8,0-4.36,4-7.84,10.81-7.84A23.52,23.52,0,0,1,102.73,7v6.27a23,23,0,0,0-8.73-2c-2.13,0-3.07.54-3.07,1.65s1.2,1.56,3.65,2.36c5,1.64,10.73,3.56,10.73,9.34C105.31,29.36,101.13,32.75,94,32.75Zm25.82,0a21.08,21.08,0,0,1-11-3.17v-7c3.87,2.71,8.63,4.1,11,4.1,2,0,3.56-.45,3.56-2s-1.16-1.91-4.28-2.85C114,20.29,109,18.63,109,13c0-4.36,4-7.84,10.82-7.84A23.51,23.51,0,0,1,128.54,7v6.27a22.91,22.91,0,0,0-8.73-2c-2.13,0-3.06.54-3.06,1.65s1.2,1.56,3.64,2.36c5,1.64,10.73,3.56,10.73,9.34C131.12,29.36,126.94,32.75,119.78,32.75Zm34.84-.45H136.11V5.6h7.2V26.24h11.31Zm15,.45c-9.21,0-12.46-5.61-12.46-13.8s3.25-13.8,12.46-13.8,12.46,5.61,12.46,13.8S178.83,32.75,169.61,32.75Zm16.78-10.2c3.87,2.71,8.63,4.1,11,4.1,2,0,3.55-.45,3.55-2s-1.15-1.91-4.27-2.85c-5-1.5-10.06-3.16-10.06-8.8,0-4.36,4-7.84,10.82-7.84A23.52,23.52,0,0,1,206.2,7v6.27a23,23,0,0,0-8.73-2c-2.14,0-3.07.54-3.07,1.65s1.2,1.56,3.65,2.36c5,1.64,10.73,3.56,10.73,9.34,0,4.72-4.19,8.11-11.35,8.11a21.08,21.08,0,0,1-11-3.17ZM169.57,58.24v-.07a4.08,4.08,0,0,0,2.6-3.85,4,4,0,0,0-1.25-3.12A6,6,0,0,0,166.76,50a15.09,15.09,0,0,0-3.46.33V67.53a20.36,20.36,0,0,0,2.91.18c2.53,0,4.24-.57,5.26-1.69a4.94,4.94,0,0,0,1.27-3.46A4.24,4.24,0,0,0,169.57,58.24Zm-3.51-6.05a3.25,3.25,0,0,1,1-.11,2.23,2.23,0,0,1,2.39,2.55,2.6,2.6,0,0,1-2.55,2.73h-.83Zm.88,13.36a4.19,4.19,0,0,1-.88-.08v-6h.81a2.91,2.91,0,0,1,3,3.09A2.75,2.75,0,0,1,166.94,65.55ZM169.61,11c-4.18,0-5.25,3.07-5.25,8s1.07,8,5.25,8,5.25-3.07,5.25-8S173.79,11,169.61,11Zm9.92,43.73c-2.71,0-4.74,2.55-4.74,6.73,0,3.93,1.77,6.29,5,6.29a8.15,8.15,0,0,0,3.17-.59l-.39-2a5.5,5.5,0,0,1-2.26.47c-1.48,0-2.81-.78-2.83-3.61h5.95a14,14,0,0,0,.08-1.48C183.53,57.13,182.18,54.71,179.53,54.71Zm-2,5.3c.06-1.48.6-3.22,1.8-3.22,1,0,1.66,1.19,1.64,3.22Zm-25.27-5.3c-2.7,0-4.73,2.55-4.73,6.73,0,3.93,1.77,6.29,5,6.29a8.19,8.19,0,0,0,3.17-.59l-.39-2a5.5,5.5,0,0,1-2.26.47c-1.48,0-2.81-.78-2.83-3.61h6a14,14,0,0,0,.08-1.48C156.26,57.13,154.91,54.71,152.25,54.71Zm-2,5.3c.05-1.48.6-3.22,1.8-3.22,1,0,1.66,1.19,1.63,3.22Zm-24.2-5.3a3.37,3.37,0,0,0-3,1.69H123l-.13-1.48h-2.41c.05,1.11.1,2.13.1,3.56v9.1h2.78V59.75a4.2,4.2,0,0,1,.13-1.14c.26-1,.89-1.56,1.56-1.56,1.22,0,1.48,1.25,1.48,2.49v8h2.79v-8.3C129.3,56.35,128.18,54.71,126.05,54.71ZM105.3,51.77l-2.78,1v2.19H101v2h1.51v6.58c0,1.87.31,2.81.93,3.43a3.08,3.08,0,0,0,2.24.78,6.53,6.53,0,0,0,1.82-.2l-.05-2.16a4.82,4.82,0,0,1-.86.08c-.7,0-1.3-.39-1.3-2V56.94h2.44v-2H105.3Zm8.4,2.94c-2.37,0-4.63,2-4.63,6.58,0,4.26,1.84,6.5,4.52,6.5,1.93,0,4.55-1.46,4.55-6.58C118.14,57.05,116.35,54.71,113.7,54.71Zm0,10.94c-1.49,0-1.85-2.28-1.85-4.42,0-1.84.29-4.36,1.79-4.36s1.75,2.52,1.75,4.36S115.07,65.65,113.7,65.65Zm74.72-8.81h-.08l-.16-1.92h-2.41c0,1.09.1,2.39.1,3.56v9.1h2.78V60.9a5.27,5.27,0,0,1,.11-1.23A2.48,2.48,0,0,1,191,57.49a1.88,1.88,0,0,1,.57,0V54.76a2.72,2.72,0,0,0-.57,0A3,3,0,0,0,188.42,56.84Zm10.37-2.13a3.4,3.4,0,0,0-3,1.69h-.05l-.13-1.48H193.2c.05,1.11.11,2.13.11,3.56v9.1h2.78V59.75a4.2,4.2,0,0,1,.13-1.14c.26-1,.88-1.56,1.56-1.56,1.22,0,1.48,1.25,1.48,2.49v8H202v-8.3C202,56.35,200.92,54.71,198.79,54.71Zm-102.85,0a3.38,3.38,0,0,0-3,1.69h0l-.13-1.48H90.35c.05,1.11.1,2.13.1,3.56v9.1h2.78V59.75a4.64,4.64,0,0,1,.13-1.14c.26-1,.89-1.56,1.56-1.56,1.23,0,1.49,1.25,1.49,2.49v8h2.78v-8.3C99.19,56.35,98.07,54.71,95.94,54.71Z"/></g></g></svg>