<svg xmlns="http://www.w3.org/2000/svg" xmlns:xlink="http://www.w3.org/1999/xlink" viewBox="0 0 147.4 56.69"><defs><style>.cls-1{isolation:isolate;}.cls-2{fill:none;}.cls-2,.cls-3{mix-blend-mode:multiply;}.cls-4{fill:#868789;}.cls-5{fill:#c5c6c8;}.cls-6{fill:url(#linear-gradient);}.cls-7{fill:url(#linear-gradient-2);}.cls-8{fill:url(#Dégradé_sans_nom_2);}.cls-9{fill:#fff;}.cls-10{fill:#1a171b;}</style><linearGradient id="linear-gradient" x1="94.87" y1="15.26" x2="108.01" y2="15.26" gradientTransform="translate(-16.46)" gradientUnits="userSpaceOnUse"><stop offset="0" stop-color="#9b9c9e"/><stop offset="0.27" stop-color="#7e7f81"/><stop offset="0.76" stop-color="#4f4f51"/><stop offset="1" stop-color="#3d3d3f"/></linearGradient><linearGradient id="linear-gradient-2" x1="77.25" y1="15.26" x2="90.39" y2="15.26" gradientTransform="matrix(-1, 0, 0, 1, 146.27, 0)" xlink:href="#linear-gradient"/><linearGradient id="Dégradé_sans_nom_2" x1="135.21" y1="12.5" x2="155" y2="12.5" gradientTransform="matrix(-1, 0, 0, 1, 218.83, 0)" gradientUnits="userSpaceOnUse"><stop offset="0" stop-color="#9b9c9e"/><stop offset="0.03" stop-color="#b0b2b3"/><stop offset="0.5" stop-color="#1a171b"/><stop offset="1" stop-color="#9b9c9e"/></linearGradient></defs><g class="cls-1"><g id="Ebene_2" data-name="Ebene 2"><g id="Calque_1" data-name="Calque 1"><rect class="cls-2" width="147.4" height="56.69"/><g class="cls-3"><path d="M21.93,27.1h-.34c-1.73,0-2.11,2.69-2.2,3.44h-.51L19,26.65h8.34l.13,3.89H27c-.09-.75-.47-3.44-2.2-3.44h-.33V38.38h1.27v.45H20.65v-.45h1.28Z"/><path d="M36.12,38.83H28.49v-.45h.82V27.1h-.82v-.45h7.4l.11,3.1h-.43c-.62-2.16-1.33-2.65-2.89-2.65h-.85v5.13c1.39,0,1.71-.77,1.75-2.16h.47v5.06h-.42c-.2-1.62-.41-2.41-1.8-2.41v5.66h.88c2.43,0,2.88-1.81,3.09-3.52h.48Z"/><path d="M40.42,27.1h-.34c-1.73,0-2.11,2.69-2.2,3.44h-.51l.13-3.89h8.35L46,30.54h-.51c-.09-.75-.47-3.44-2.2-3.44h-.33V38.38h1.27v.45H39.14v-.45h1.28Z"/><path d="M54.61,38.83H47v-.45h.82V27.1H47v-.45h7.4l.11,3.1h-.43c-.62-2.16-1.33-2.65-2.89-2.65h-.85v5.13c1.39,0,1.71-.77,1.75-2.16h.47v5.06h-.42c-.2-1.62-.41-2.41-1.8-2.41v5.66h.88c2.43,0,2.88-1.81,3.09-3.52h.48Z"/><path d="M59.89,27.1v-.45h3.64c2.56,0,5,1.15,5,6.33,0,3.67-1.84,5.85-4.68,5.85H59.89v-.45h.82V27.1Zm3.34,11.28h.21c2.31,0,2.31-1.62,2.31-5.6,0-4.23-.13-5.68-2.2-5.68h-.32Z"/><path d="M77.13,38.83H69.51v-.45h.82V27.1h-.82v-.45h7.4l.11,3.1h-.43C76,27.59,75.26,27.1,73.7,27.1h-.85v5.13c1.39,0,1.71-.77,1.75-2.16h.47v5.06h-.42c-.2-1.62-.41-2.41-1.8-2.41v5.66h.88c2.43,0,2.88-1.81,3.09-3.52h.48Z"/><path d="M84.65,38.83H82.3v-.45h.83V27.1H82.3v-.45h3.57l1.8,7.54h0l1.94-7.54h3.47v.45h-.79V38.38h.79v.45H89v-.45h1V27.46h0L87,38.83h-.55L83.73,27.21h0V38.38h1Z"/><path d="M103.76,32.78c0,3.66-2.1,6.29-4.64,6.29s-4.64-2.63-4.64-6.29,2.1-6.32,4.64-6.32S103.76,29.08,103.76,32.78Zm-2.9-2.48c0-3-.65-3.39-1.74-3.39s-1.75.38-1.75,3.39v5.43c0,2.25.75,2.89,1.75,2.89s1.74-.64,1.74-2.89Z"/><path d="M109.57,38.38v.45h-4.48v-.45h1V27.1h-1v-.45h4.48v.45h-1V38.38Z"/><path d="M113.47,38.83h-2.65v-.45h1V27.1h-1v-.45h3.42L118,33.94h0V27.1h-1v-.45h2.54v.45h-1V39h-.69l-5.45-10.65h0v10h1.09Z"/><path d="M128.22,38.83h-7.63v-.45h.83V27.1h-.83v-.45H128l.12,3.1h-.44c-.62-2.16-1.33-2.65-2.89-2.65h-.85v5.13c1.39,0,1.71-.77,1.75-2.16h.47v5.06h-.41c-.21-1.62-.42-2.41-1.81-2.41v5.66h.89c2.42,0,2.87-1.81,3.08-3.52h.49Z"/><path d="M29.5,25.85l2-1.52h1.31l2,1.52h-.81l-1.82-1-1.83,1Z"/><polygon points="134.11 41.88 13.32 41.88 13.32 41.42 134.11 41.42 134.11 41.88 134.11 41.88"/><path class="cls-4" d="M24.83,44.52h3.4v.87H26v.86h1.9v.85H26v1.61H24.83Z"/><path class="cls-4" d="M29.82,44.52h2.35c.81,0,1.62.33,1.62,1.18a1.07,1.07,0,0,1-.73,1h0a1,1,0,0,1,.67,1c0,.17,0,.79.2.94H32.74A2.11,2.11,0,0,1,32.6,48c0-.42-.11-.86-.67-.86H31v1.53h-1.2ZM31,46.34h1c.36,0,.55-.18.55-.5s-.27-.45-.6-.45H31Z"/><path class="cls-4" d="M37.62,44.43a2.19,2.19,0,1,1-2.28,2.18A2.11,2.11,0,0,1,37.62,44.43Zm0,3.43c.77,0,1.07-.62,1.07-1.25s-.3-1.24-1.07-1.24-1.07.62-1.07,1.24S36.84,47.86,37.62,47.86Z"/><path class="cls-4" d="M41.59,44.52h1.77l.79,2.79h0L45,44.52h1.77v4.19H45.6V45.53h0l-1,3.18H43.7l-1-3.18h0v3.18H41.59Z"/><path class="cls-4" d="M49.85,44.52h1.22l1.73,4.19H51.55L51.26,48H49.65l-.29.75H48.13Zm.08,2.63h1l-.51-1.47h0Z"/><path class="cls-4" d="M58.44,48.71h-.77l-.07-.46a1.64,1.64,0,0,1-1.29.55,2.19,2.19,0,1,1,0-4.37,1.9,1.9,0,0,1,2.09,1.51H57.2c0-.35-.43-.57-.92-.57-.77,0-1.07.62-1.07,1.24s.3,1.25,1.07,1.25c.6,0,1-.25,1.06-.64H56.5v-.81h1.94Z"/><path class="cls-4" d="M60.25,44.52h3.67v.87H61.45v.74h2.26V47H61.45v.8H64v.94H60.25Z"/><path class="cls-4" d="M69,44.52h2a2.1,2.1,0,1,1,0,4.19H69Zm1.2,3.25h.57c.91,0,1.27-.34,1.27-1.18s-.45-1.13-1.27-1.13h-.57Z"/><path class="cls-4" d="M74.91,44.52h3.68v.87H76.11v.74h2.26V47H76.11v.8h2.54v.94H74.91Z"/><path class="cls-4" d="M83.58,44.52h2.16c.79,0,1.67.17,1.67,1a.94.94,0,0,1-.61.84,1,1,0,0,1,.79,1c0,1-.8,1.3-1.79,1.3H83.58Zm1.2,1.65h.93c.21,0,.49-.1.49-.4s-.23-.41-.49-.41h-.93Zm0,1.67h1c.38,0,.64-.13.64-.47s-.28-.5-.64-.5h-1Z"/><path class="cls-4" d="M89.28,44.52H93v.87H90.48v.74h2.27V47H90.48v.8H93v.94H89.28Z"/><path class="cls-4" d="M94.94,44.52h1.2v3.25h2.15v.94H94.94Z"/><path class="cls-4" d="M99.92,44.52h1.2v3.25h2.15v.94H99.92Z"/><path class="cls-4" d="M104.71,44.52h3.68v.87h-2.48v.74h2.26V47h-2.26v.8h2.54v.94h-3.74Z"/><path class="cls-4" d="M110.47,44.52h1.21v3.25h2.15v.94h-3.36Z"/><path class="cls-4" d="M116.41,44.52h1.22l1.72,4.19H118.1l-.28-.75h-1.61l-.29.75h-1.24Zm.07,2.63h1L117,45.68h0Z"/><path class="cls-4" d="M122.63,47.15v1.56h-1.2V47.15l-1.68-2.63h1.36l.92,1.7.92-1.7h1.36Z"/><path class="cls-5" d="M78.42,20.72h0Zm4.35-2.15a13.86,13.86,0,0,0-4.49-.7c.09,1.82.13,2.76.14,2.85h0s0-.38,1.15-.48c1.55-.13,4.11-.15,4.05-.89C83.62,19.35,83.57,18.87,82.77,18.57Z"/><path class="cls-6" d="M89,9.78s-.76-.93-3.17-.93A8,8,0,0,0,83,9.4l.64,10c.07.74-2.5.66-4,.86-.58.08-1.16.2-1.16.49s.25.73,1.62.73c2.4,0,4.32-1.19,7.39-1.19s4.13,1.43,4.13,1.43Z"/><path class="cls-5" d="M69,20.73h0Zm-5.2-1.38c-.06.74,2.5.76,4.05.89,1.14.1,1.18.47,1.18.48s0-1,.11-2.85a13.86,13.86,0,0,0-4.49.7C63.84,18.87,63.79,19.35,63.79,19.35Z"/><path class="cls-7" d="M58.42,9.78s.77-.93,3.17-.93a6.55,6.55,0,0,1,2.87.55l-.64,10c-.06.74,2.51.66,4.05.86.58.08,1.15.2,1.15.49s-.25.73-1.61.73c-2.41,0-4.33-1.19-7.4-1.19s-4.12,1.43-4.12,1.43Z"/><path class="cls-8" d="M64.66,18.61c-.81.3-.84.72-.84.72l.72-11.15c.1-1.8,5.31-2.51,9.17-2.51s9,.71,9.18,2.51l.72,11.16s0-.43-.83-.73c-.43-.16-1.71-.85-9.07-.85s-9,.85-9,.85"/><path class="cls-9" d="M78.49,10.56c-1.38-.2-3.39-.28-3.39-.28l0-3c-1.42-.07-2.71,0-2.71,0l0,3s-2,.07-3.35.28l-.07,2.65C70.49,13,72.27,13,72.27,13v3c.9,0,2,0,2.9,0V13s2,0,3.4.18Z"/><path class="cls-9" d="M142.84,24.54h0c-.05,0-.1,0-.12,0-.33,0-.49,0-.8,0v-.27c0-.1,0-.21.1-.25l0,0c.09-.05,0-.16.06-.22a1.39,1.39,0,0,0-.67-.24,3.78,3.78,0,0,0-.48.2h0c0,.25.08.58,0,.8-.27,0-.67.11-1,.06l-.07,0c-.07,0,0,0,0,.1a1.12,1.12,0,0,0,0,.45c0,.16.13.19.08.39s0,.09.07.13.59-.07.83,0c.09.32-.06.52-.05.84a1.55,1.55,0,0,1,.66.11,1.36,1.36,0,0,1,.41,0c.19-.14-.1-.18.05-.36-.11-.18.08-.31.07-.46s0-.08,0-.2c.29,0,.53,0,.81.05a.65.65,0,0,1,.21.06H143s0-.09,0-.12c.12-.08,0-.18.13-.27s0,0,0-.07,0,0,0,0a0,0,0,0,0,0,0A2.94,2.94,0,0,0,142.84,24.54Z"/><path class="cls-10" d="M142,23.78c0,.06,0,.17-.06.22l0,0c-.13,0-.06.15-.1.25v.27c.31,0,.47,0,.8,0,0-.05.08,0,.12,0a3,3,0,0,1-.17-1.22c0-.17,0-.26,0-.39a2.65,2.65,0,0,1-.84.42l-.45.19A1.39,1.39,0,0,1,142,23.78Z"/><path class="cls-10" d="M132.81,29.21a9,9,0,0,0,.25,1.31s.09.3.19.64a17.75,17.75,0,0,0,3.21.24l1.46.78.88-1.09a51.35,51.35,0,0,0,5.4-1.47,3.94,3.94,0,0,1-.06-.45c0-.18,0-.41-.09-.63a8.12,8.12,0,0,0-.26-1.14,0,0,0,0,1,0,0s0,0,0,0l0-.1s-.3-1-.32-1.13a2.66,2.66,0,0,0-.27-.94v0s0,0,0,0,.07.05,0,.07,0,.19-.13.27c0,0,0,.08,0,.12h-.07a.65.65,0,0,0-.21-.06c-.28-.06-.52,0-.81-.05,0,.12-.13.09,0,.2s-.18.28-.07.46c-.15.18.14.22-.05.36a1.36,1.36,0,0,0-.41,0,1.55,1.55,0,0,0-.66-.11c0-.32.14-.52.05-.84-.24,0-.61.07-.83,0s0-.08-.07-.13-.06-.23-.08-.39a1.12,1.12,0,0,1,0-.45c0-.08,0-.14,0-.1l.07,0c.28.05.68-.08,1-.06.12-.22,0-.55,0-.8a24.79,24.79,0,0,1-2.69,1.15c-2.19.59-2,.74-3.81,1.3a7.23,7.23,0,0,1-1.55.38c-.62.07-.69-.06-.59.2s.13.59.31,1.17C132.6,28.06,132.74,28.83,132.81,29.21Z"/><path d="M133.82,33.08q.06.24.15.51a4.45,4.45,0,0,1,.22,1.18,1.42,1.42,0,0,0,.57-.05,15.71,15.71,0,0,1,2-1c1.13-.41,2-.57,2.55-.74a25.49,25.49,0,0,0,2.6-1.17,6.55,6.55,0,0,1,2.81-.86l-.18-.36a3.66,3.66,0,0,1-.31-1,9.69,9.69,0,0,1-3.18.66,2.94,2.94,0,0,0-1.44,0l-.18.66-1.36.89-.58-1.27-1.21.15a11.5,11.5,0,0,0-3,.41c.17.6.32,1.11.32,1.11s.18.54.22.68Z"/><path class="cls-9" d="M143.11,29.11c.89-1,1-1.92.08-2.3-1.87-.76-3.52,2.21-3.52,2.21a2.46,2.46,0,0,1,1.41-1,34.59,34.59,0,0,1-.9,4.08,3.93,3.93,0,0,0,1-1.08,19.8,19.8,0,0,0,.6-3.1H142c2.06.1-.24,2.13-.24,2.13S142.22,30.15,143.11,29.11Z"/><path class="cls-9" d="M136.59,27.66a24,24,0,0,0-2.18,3.09s-.83.09-1.24.16c0,0,.07.26.12.39.32-.06.77-.11.94-.13,0,0-.35.52-.67,1.08.06.2.19.6.24.78.42-.75,1-1.8,1-1.88.36-.06,1-.1,1.11-.1a6.18,6.18,0,0,0,.44,1.53,7.06,7.06,0,0,0,.69-1.35s-.2-.91-.24-1.21a5.5,5.5,0,0,1,.26-2.57Zm-.76,2.95s-.67.06-.81.09.42-.73,1-1.84A3.76,3.76,0,0,0,135.83,30.61Z"/><path class="cls-9" d="M139.05,31.54a4.93,4.93,0,0,0,1.21-3.19c0-.58-.46-.84-.78-1.17s-.43-.09-.65-.06l-.77,1.17.2,0a12.42,12.42,0,0,0-.91,1.7,2,2,0,0,0,.08,1.83.9.9,0,0,0,1.49-.07Zm-.84-.93a2.57,2.57,0,0,1,.24-2.36.31.31,0,0,1,.26.1,2.62,2.62,0,0,1,.62.7,2.24,2.24,0,0,1,0,1.81A.81.81,0,0,1,138.21,30.61Z"/></g></g></g></g></svg>